<svg xmlns="http://www.w3.org/2000/svg" viewBox="0 0 600 720" preserveAspectRatio="xMidYMid slice">
  <defs>
    <linearGradient id="bgl" x1="0" y1="0" x2="0" y2="1">
      <stop offset="0" stop-color="#0B1322"/><stop offset="1" stop-color="#152A4A"/>
    </linearGradient>
    <linearGradient id="rim" x1="0" y1="0" x2="1" y2="0">
      <stop offset="0" stop-color="#3D6BFF" stop-opacity="0"/>
      <stop offset=".5" stop-color="#8FE9FF" stop-opacity=".9"/>
      <stop offset="1" stop-color="#3D6BFF" stop-opacity="0"/>
    </linearGradient>
    <filter id="g7"><feTurbulence type="fractalNoise" baseFrequency=".8" numOctaves="2"/>
      <feColorMatrix values="0 0 0 0 1  0 0 0 0 1  0 0 0 0 1  0 0 0 .06 0"/></filter>
    <filter id="soft7" x="-40%" y="-40%" width="180%" height="180%"><feGaussianBlur stdDeviation="18"/></filter>
  </defs>
  <rect width="600" height="720" fill="url(#bgl)"/>
  <g filter="url(#soft7)"><ellipse cx="300" cy="200" rx="240" ry="180" fill="#3D6BFF" opacity=".25"/></g>

  <!-- ballon de rugby en arrière-plan -->
  <ellipse cx="460" cy="150" rx="92" ry="56" fill="none" stroke="#8FE9FF" stroke-opacity=".4" stroke-width="3" transform="rotate(-24 460 150)"/>
  <line x1="404" y1="180" x2="516" y2="120" stroke="#8FE9FF" stroke-opacity=".35" stroke-width="3"/>

  <!-- buste silhouette -->
  <g fill="#050910">
    <circle cx="300" cy="280" r="86"/>
    <path d="M120 720 Q128 520 232 476 Q300 448 368 476 Q472 520 480 720 Z"/>
  </g>
  <!-- lumière de contour -->
  <path d="M300 194 A86 86 0 0 1 386 280" fill="none" stroke="url(#rim)" stroke-width="6" stroke-linecap="round"/>
  <path d="M368 476 Q472 520 480 720" fill="none" stroke="url(#rim)" stroke-width="6" stroke-linecap="round" opacity=".8"/>

  <!-- laurier discret -->
  <g stroke="#E8A33D" stroke-opacity=".55" stroke-width="3" fill="none">
    <path d="M96 640 Q80 560 118 492"/><path d="M504 640 Q520 560 482 492"/>
  </g>
  <rect width="600" height="720" filter="url(#g7)"/>
</svg>
